<svg width="72" height="17" viewBox="0 0 72 17" fill="none" xmlns="http://www.w3.org/2000/svg">
<path d="M16.002 8.05C16.002 3.604 12.42 0 8.002 0C3.582 0.001 0 3.604 0 8.051C0 12.068 2.926 15.398 6.75 16.002V10.377H4.72V8.051H6.752V6.276C6.752 4.259 7.947 3.145 9.774 3.145C10.65 3.145 11.565 3.302 11.565 3.302V5.282H10.556C9.563 5.282 9.253 5.903 9.253 6.54V8.05H11.471L11.117 10.376H9.252V16.001C13.076 15.397 16.002 12.067 16.002 8.05Z" fill="white"/>
<path d="M43.9485 4.73034C43.9395 4.05742 43.8135 3.39118 43.5762 2.76144C43.3704 2.23026 43.056 1.74784 42.6532 1.34503C42.2504 0.942215 41.768 0.627855 41.2368 0.422035C40.6151 0.188678 39.9584 0.0624978 39.2945 0.0488672C38.4398 0.010662 38.1688 0 35.9991 0C33.8294 0 33.5513 5.95782e-08 32.7028 0.0488672C32.0392 0.062598 31.3828 0.188777 30.7614 0.422035C30.2302 0.627712 29.7477 0.942021 29.3449 1.34485C28.942 1.74769 28.6277 2.23017 28.422 2.76144C28.1882 3.38261 28.0623 4.03919 28.0498 4.7028C28.0116 5.55842 28 5.82941 28 7.99911C28 10.1688 28 10.446 28.0498 11.2954C28.0631 11.96 28.1884 12.6157 28.422 13.2386C28.6281 13.7697 28.9426 14.252 29.3456 14.6546C29.7485 15.0573 30.2311 15.3715 30.7623 15.5771C31.382 15.8198 32.0385 15.955 32.7037 15.9769C33.5593 16.0151 33.8303 16.0267 36 16.0267C38.1697 16.0267 38.4478 16.0267 39.2963 15.9769C39.9602 15.9638 40.6169 15.8379 41.2386 15.6046C41.7696 15.3986 42.2519 15.0841 42.6547 14.6813C43.0575 14.2786 43.3719 13.7963 43.578 13.2652C43.8116 12.6433 43.9369 11.9876 43.9502 11.3221C43.9884 10.4673 44 10.1964 44 8.02577C43.9982 5.85606 43.9982 5.58063 43.9485 4.73034ZM35.9938 12.1022C33.7246 12.1022 31.8863 10.2639 31.8863 7.99467C31.8863 5.72546 33.7246 3.88716 35.9938 3.88716C37.0832 3.88716 38.1279 4.31992 38.8982 5.09022C39.6685 5.86053 40.1013 6.90529 40.1013 7.99467C40.1013 9.08405 39.6685 10.1288 38.8982 10.8991C38.1279 11.6694 37.0832 12.1022 35.9938 12.1022ZM40.2648 4.69303C40.139 4.69314 40.0144 4.66845 39.8981 4.62036C39.7818 4.57226 39.6762 4.50172 39.5872 4.41275C39.4983 4.32379 39.4277 4.21816 39.3796 4.1019C39.3316 3.98564 39.3069 3.86104 39.307 3.73523C39.307 3.60951 39.3317 3.48502 39.3798 3.36887C39.428 3.25271 39.4985 3.14718 39.5874 3.05828C39.6763 2.96938 39.7818 2.89886 39.898 2.85075C40.0141 2.80264 40.1386 2.77788 40.2643 2.77788C40.39 2.77788 40.5145 2.80264 40.6307 2.85075C40.7468 2.89886 40.8524 2.96938 40.9413 3.05828C41.0302 3.14718 41.1007 3.25271 41.1488 3.36887C41.1969 3.48502 41.2217 3.60951 41.2217 3.73523C41.2217 4.26477 40.7934 4.69303 40.2648 4.69303Z" fill="white"/>
<path d="M35.9938 10.663C37.4673 10.663 38.6619 9.46839 38.6619 7.99481C38.6619 6.52123 37.4673 5.32666 35.9938 5.32666C34.5202 5.32666 33.3256 6.52123 33.3256 7.99481C33.3256 9.46839 34.5202 10.663 35.9938 10.663Z" fill="white"/>
<path d="M61.0327 15.0013C62.2612 15.0091 63.479 14.7728 64.6154 14.3062C65.7519 13.8397 66.7844 13.1521 67.653 12.2835C68.5217 11.4148 69.2093 10.3823 69.6758 9.24584C70.1424 8.10939 70.3786 6.89162 70.3709 5.66315V5.23406C71.0077 4.76751 71.5589 4.19419 72 3.53952C71.4004 3.80177 70.7659 3.9757 70.1164 4.05588C70.805 3.64554 71.3217 2.99964 71.5709 2.2377C70.9291 2.62274 70.2253 2.89343 69.4909 3.0377C68.9963 2.51069 68.3418 2.16137 67.6287 2.0438C66.9156 1.92622 66.1836 2.04693 65.546 2.38726C64.9084 2.72759 64.4007 3.26857 64.1015 3.92648C63.8023 4.58439 63.7283 5.32257 63.8909 6.02679C62.5862 5.96275 61.3096 5.62462 60.1443 5.03443C58.9789 4.44424 57.9509 3.61521 57.1273 2.60133C56.7119 3.32219 56.5861 4.17393 56.7751 4.98411C56.9641 5.79429 57.454 6.50237 58.1455 6.96497C57.6354 6.9453 57.1371 6.80577 56.6909 6.5577V6.59406C56.6864 7.34739 56.9402 8.07953 57.41 8.66844C57.8798 9.25735 58.5372 9.66746 59.2727 9.83042C58.7983 9.95803 58.3013 9.97791 57.8182 9.88861C58.0311 10.5311 58.4376 11.0919 58.9819 11.4943C59.5261 11.8966 60.1815 12.1207 60.8582 12.1359C59.7012 13.0672 58.2633 13.5798 56.7782 13.5904C56.5178 13.5829 56.258 13.561 56 13.525C57.5032 14.4827 59.2503 14.9877 61.0327 14.9795" fill="white"/>
</svg>
