<svg width="16" height="16" viewBox="0 0 16 16" fill="none" xmlns="http://www.w3.org/2000/svg">
<path d="M11.7425 10.3418C12.7107 9.0205 13.1444 7.38236 12.9567 5.75508C12.769 4.1278 11.9739 2.63139 10.7303 1.56522C9.48666 0.49905 7.88635 -0.0582469 6.2495 0.0048239C4.61265 0.0678947 3.05997 0.746681 1.90209 1.90538C0.744221 3.06408 0.0665458 4.61725 0.00464636 6.25415C-0.0572531 7.89104 0.501188 9.49095 1.56825 10.7338C2.6353 11.9766 4.13229 12.7707 5.7597 12.9572C7.38711 13.1438 9.02494 12.7089 10.3455 11.7397H10.3445C10.3745 11.7797 10.4065 11.8177 10.4425 11.8547L14.2924 15.7046C14.4799 15.8922 14.7342 15.9977 14.9995 15.9977C15.2647 15.9978 15.5192 15.8926 15.7068 15.7051C15.8944 15.5176 15.9999 15.2632 16 14.9979C16.0001 14.7327 15.8948 14.4782 15.7073 14.2906L11.8575 10.4408C11.8217 10.4046 11.7833 10.3711 11.7425 10.3408V10.3418ZM12.0004 6.4979C12.0004 7.22015 11.8582 7.93532 11.5818 8.60258C11.3054 9.26985 10.9003 9.87614 10.3896 10.3868C9.87889 10.8975 9.2726 11.3027 8.60533 11.579C7.93807 11.8554 7.2229 11.9977 6.50065 11.9977C5.77841 11.9977 5.06324 11.8554 4.39597 11.579C3.72871 11.3027 3.12241 10.8975 2.61171 10.3868C2.10101 9.87614 1.6959 9.26985 1.41951 8.60258C1.14312 7.93532 1.00086 7.22015 1.00086 6.4979C1.00086 5.03927 1.5803 3.64037 2.61171 2.60896C3.64312 1.57755 5.04202 0.99811 6.50065 0.99811C7.95929 0.99811 9.35818 1.57755 10.3896 2.60896C11.421 3.64037 12.0004 5.03927 12.0004 6.4979Z" fill="white"/>
</svg>
