<svg width="6" height="8" viewBox="0 0 6 8" fill="none" xmlns="http://www.w3.org/2000/svg">
<path d="M3.75 3.42853C3.75 3.2012 3.67098 2.98319 3.53033 2.82244C3.38968 2.6617 3.19891 2.57139 3 2.57139C2.80109 2.57139 2.61032 2.6617 2.46967 2.82244C2.32902 2.98319 2.25 3.2012 2.25 3.42853C2.25 3.65585 2.32902 3.87387 2.46967 4.03461C2.61032 4.19535 2.80109 4.28566 3 4.28566C3.19891 4.28566 3.38968 4.19535 3.53033 4.03461C3.67098 3.87387 3.75 3.65585 3.75 3.42853ZM6 3.42853C6 5.07079 4.4515 6.86619 3.5795 7.74733C3.42006 7.91005 3.21377 8 3 8C2.78623 8 2.57994 7.91005 2.4205 7.74733C1.5485 6.86619 0 5.07079 0 3.42853C-5.87054e-09 2.97829 0.0775973 2.53245 0.228361 2.11649C0.379125 1.70052 0.600104 1.32256 0.87868 1.00419C1.15726 0.685824 1.48797 0.433281 1.85195 0.260981C2.21593 0.0886815 2.60603 0 3 0C3.39397 0 3.78407 0.0886815 4.14805 0.260981C4.51203 0.433281 4.84274 0.685824 5.12132 1.00419C5.3999 1.32256 5.62087 1.70052 5.77164 2.11649C5.9224 2.53245 6 2.97829 6 3.42853ZM5.5 3.42853C5.5 2.67077 5.23661 1.94406 4.76777 1.40825C4.29893 0.872437 3.66304 0.571421 3 0.571421C2.33696 0.571421 1.70107 0.872437 1.23223 1.40825C0.763392 1.94406 0.5 2.67077 0.5 3.42853C0.5 4.06166 0.8075 4.79708 1.285 5.53307C1.752 6.25192 2.3285 6.89134 2.7515 7.31933C2.81956 7.38984 2.90814 7.42889 3 7.42889C3.09186 7.42889 3.18044 7.38984 3.2485 7.31933C3.6715 6.89134 4.2485 6.25249 4.715 5.53307C5.1925 4.79708 5.5 4.06166 5.5 3.42853Z" fill="black"/>
</svg>
